<?xml version="1.0" encoding="UTF-8" standalone="no"?>
<!DOCTYPE svg PUBLIC "-//W3C//DTD SVG 1.1//EN"
 "http://www.w3.org/Graphics/SVG/1.1/DTD/svg11.dtd">
<!-- Generated by graphviz version 2.43.0 (0)
 -->
<!-- Title: %3 Pages: 1 -->
<svg width="672pt" height="530pt"
 viewBox="0.00 0.00 671.81 529.96" xmlns="http://www.w3.org/2000/svg" xmlns:xlink="http://www.w3.org/1999/xlink">
<g id="graph0" class="graph" transform="scale(1 1) rotate(0) translate(4 525.96)">
<title>%3</title>
<polygon fill="white" stroke="transparent" points="-4,4 -4,-525.96 667.81,-525.96 667.81,4 -4,4"/>
<!-- 139720528084944 -->
<g id="node1" class="node">
<title>139720528084944</title>
<ellipse fill="none" stroke="black" cx="221.4" cy="-503.96" rx="45.49" ry="18"/>
<text text-anchor="middle" x="221.4" y="-500.26" font-family="Times,serif" font-size="14.00">Module</text>
</g>
<!-- 139720528084896 -->
<g id="node2" class="node">
<title>139720528084896</title>
<ellipse fill="none" stroke="black" cx="221.4" cy="-420.96" rx="27" ry="18"/>
<text text-anchor="middle" x="221.4" y="-417.26" font-family="Times,serif" font-size="14.00">For</text>
</g>
<!-- 139720528084944&#45;&gt;139720528084896 -->
<g id="edge1" class="edge">
<title>139720528084944&#45;&gt;139720528084896</title>
<path fill="none" stroke="black" d="M221.4,-485.78C221.4,-475.15 221.4,-461.27 221.4,-449.16"/>
<polygon fill="black" stroke="black" points="224.9,-449.11 221.4,-439.11 217.9,-449.11 224.9,-449.11"/>
<text text-anchor="middle" x="234.4" y="-459.96" font-family="Times,serif" font-size="10.00">body</text>
</g>
<!-- 139720528084848 -->
<g id="node3" class="node">
<title>139720528084848</title>
<ellipse fill="none" stroke="black" cx="64.4" cy="-329.09" rx="41.94" ry="26.74"/>
<text text-anchor="middle" x="64.4" y="-332.89" font-family="Times,serif" font-size="14.00">Name</text>
<text text-anchor="middle" x="64.4" y="-317.89" font-family="Times,serif" font-size="14.00">i</text>
</g>
<!-- 139720528084896&#45;&gt;139720528084848 -->
<g id="edge2" class="edge">
<title>139720528084896&#45;&gt;139720528084848</title>
<path fill="none" stroke="black" d="M201.51,-408.58C177.03,-394.56 134.88,-370.43 103.75,-352.62"/>
<polygon fill="black" stroke="black" points="105.3,-349.47 94.89,-347.54 101.83,-355.55 105.3,-349.47"/>
<text text-anchor="middle" x="172.9" y="-376.96" font-family="Times,serif" font-size="10.00">target</text>
</g>
<!-- 139720528084752 -->
<g id="node5" class="node">
<title>139720528084752</title>
<ellipse fill="none" stroke="black" cx="221.4" cy="-329.09" rx="41.02" ry="26.74"/>
<text text-anchor="middle" x="221.4" y="-332.89" font-family="Times,serif" font-size="14.00">Call</text>
<text text-anchor="middle" x="221.4" y="-317.89" font-family="Times,serif" font-size="14.00">range</text>
</g>
<!-- 139720528084896&#45;&gt;139720528084752 -->
<g id="edge4" class="edge">
<title>139720528084896&#45;&gt;139720528084752</title>
<path fill="none" stroke="black" d="M221.4,-402.63C221.4,-392.35 221.4,-378.92 221.4,-366.42"/>
<polygon fill="black" stroke="black" points="224.9,-366.22 221.4,-356.22 217.9,-366.22 224.9,-366.22"/>
<text text-anchor="middle" x="230.4" y="-376.96" font-family="Times,serif" font-size="10.00">iter</text>
</g>
<!-- 139720528084656 -->
<g id="node8" class="node">
<title>139720528084656</title>
<ellipse fill="none" stroke="black" cx="377.4" cy="-329.09" rx="27" ry="18"/>
<text text-anchor="middle" x="377.4" y="-325.39" font-family="Times,serif" font-size="14.00">If</text>
</g>
<!-- 139720528084896&#45;&gt;139720528084656 -->
<g id="edge7" class="edge">
<title>139720528084896&#45;&gt;139720528084656</title>
<path fill="none" stroke="black" d="M241.15,-408.58C268.32,-392.93 317.37,-364.67 348.61,-346.67"/>
<polygon fill="black" stroke="black" points="350.39,-349.69 357.31,-341.66 346.89,-343.62 350.39,-349.69"/>
<text text-anchor="middle" x="312.4" y="-376.96" font-family="Times,serif" font-size="10.00">body</text>
</g>
<!-- 139720529985008 -->
<g id="node4" class="node">
<title>139720529985008</title>
<ellipse fill="none" stroke="black" cx="36.4" cy="-228.35" rx="36.29" ry="18"/>
<text text-anchor="middle" x="36.4" y="-224.65" font-family="Times,serif" font-size="14.00">Store</text>
</g>
<!-- 139720528084848&#45;&gt;139720529985008 -->
<g id="edge3" class="edge">
<title>139720528084848&#45;&gt;139720529985008</title>
<path fill="none" stroke="black" d="M57.11,-302.41C53.07,-288.15 48.05,-270.45 43.96,-256.03"/>
<polygon fill="black" stroke="black" points="47.28,-254.89 41.18,-246.22 40.54,-256.8 47.28,-254.89"/>
<text text-anchor="middle" x="59.4" y="-276.22" font-family="Times,serif" font-size="10.00">ctx</text>
</g>
<!-- 139720528084704 -->
<g id="node6" class="node">
<title>139720528084704</title>
<ellipse fill="none" stroke="black" cx="132.4" cy="-228.35" rx="41.94" ry="26.74"/>
<text text-anchor="middle" x="132.4" y="-232.15" font-family="Times,serif" font-size="14.00">Name</text>
<text text-anchor="middle" x="132.4" y="-217.15" font-family="Times,serif" font-size="14.00">range</text>
</g>
<!-- 139720528084752&#45;&gt;139720528084704 -->
<g id="edge5" class="edge">
<title>139720528084752&#45;&gt;139720528084704</title>
<path fill="none" stroke="black" d="M201.2,-305.68C188.89,-292.02 172.99,-274.38 159.57,-259.5"/>
<polygon fill="black" stroke="black" points="162.12,-257.09 152.82,-252.01 156.92,-261.78 162.12,-257.09"/>
<text text-anchor="middle" x="191.9" y="-276.22" font-family="Times,serif" font-size="10.00">func</text>
</g>
<!-- 139720528084608 -->
<g id="node7" class="node">
<title>139720528084608</title>
<ellipse fill="none" stroke="black" cx="249.4" cy="-228.35" rx="57.05" ry="26.74"/>
<text text-anchor="middle" x="249.4" y="-232.15" font-family="Times,serif" font-size="14.00">Constant</text>
<text text-anchor="middle" x="249.4" y="-217.15" font-family="Times,serif" font-size="14.00">20</text>
</g>
<!-- 139720528084752&#45;&gt;139720528084608 -->
<g id="edge6" class="edge">
<title>139720528084752&#45;&gt;139720528084608</title>
<path fill="none" stroke="black" d="M228.68,-302.41C231.9,-291.07 235.73,-277.54 239.22,-265.23"/>
<polygon fill="black" stroke="black" points="242.69,-265.83 242.05,-255.25 235.96,-263.92 242.69,-265.83"/>
<text text-anchor="middle" x="247.9" y="-276.22" font-family="Times,serif" font-size="10.00">args</text>
</g>
<!-- 139720528084560 -->
<g id="node9" class="node">
<title>139720528084560</title>
<ellipse fill="none" stroke="black" cx="377.4" cy="-228.35" rx="52.79" ry="18"/>
<text text-anchor="middle" x="377.4" y="-224.65" font-family="Times,serif" font-size="14.00">Compare</text>
</g>
<!-- 139720528084656&#45;&gt;139720528084560 -->
<g id="edge8" class="edge">
<title>139720528084656&#45;&gt;139720528084560</title>
<path fill="none" stroke="black" d="M377.4,-310.89C377.4,-295.88 377.4,-273.85 377.4,-256.47"/>
<polygon fill="black" stroke="black" points="380.9,-256.35 377.4,-246.35 373.9,-256.35 380.9,-256.35"/>
<text text-anchor="middle" x="386.9" y="-276.22" font-family="Times,serif" font-size="10.00">test</text>
</g>
<!-- 139720528084128 -->
<g id="node16" class="node">
<title>139720528084128</title>
<ellipse fill="none" stroke="black" cx="485.4" cy="-228.35" rx="33.29" ry="18"/>
<text text-anchor="middle" x="485.4" y="-224.65" font-family="Times,serif" font-size="14.00">Expr</text>
</g>
<!-- 139720528084656&#45;&gt;139720528084128 -->
<g id="edge15" class="edge">
<title>139720528084656&#45;&gt;139720528084128</title>
<path fill="none" stroke="black" d="M392.87,-313.94C410.87,-297.49 440.78,-270.14 461.71,-251.01"/>
<polygon fill="black" stroke="black" points="464.23,-253.45 469.25,-244.12 459.5,-248.28 464.23,-253.45"/>
<text text-anchor="middle" x="448.4" y="-276.22" font-family="Times,serif" font-size="10.00">body</text>
</g>
<!-- 139720528084512 -->
<g id="node10" class="node">
<title>139720528084512</title>
<ellipse fill="none" stroke="black" cx="200.4" cy="-127.61" rx="39.79" ry="18"/>
<text text-anchor="middle" x="200.4" y="-123.91" font-family="Times,serif" font-size="14.00">BinOp</text>
</g>
<!-- 139720528084560&#45;&gt;139720528084512 -->
<g id="edge9" class="edge">
<title>139720528084560&#45;&gt;139720528084512</title>
<path fill="none" stroke="black" d="M350.9,-212.57C319.6,-195.11 267.53,-166.06 233.58,-147.12"/>
<polygon fill="black" stroke="black" points="234.95,-143.88 224.51,-142.06 231.54,-149.99 234.95,-143.88"/>
<text text-anchor="middle" x="302.9" y="-175.48" font-family="Times,serif" font-size="10.00">left</text>
</g>
<!-- 139720529982752 -->
<g id="node14" class="node">
<title>139720529982752</title>
<ellipse fill="none" stroke="black" cx="285.4" cy="-127.61" rx="27" ry="18"/>
<text text-anchor="middle" x="285.4" y="-123.91" font-family="Times,serif" font-size="14.00">Eq</text>
</g>
<!-- 139720528084560&#45;&gt;139720529982752 -->
<g id="edge13" class="edge">
<title>139720528084560&#45;&gt;139720529982752</title>
<path fill="none" stroke="black" d="M362.2,-211.05C346.84,-194.56 323,-168.97 305.95,-150.67"/>
<polygon fill="black" stroke="black" points="308.49,-148.26 299.11,-143.33 303.36,-153.03 308.49,-148.26"/>
<text text-anchor="middle" x="343.9" y="-175.48" font-family="Times,serif" font-size="10.00">ops</text>
</g>
<!-- 139720528084176 -->
<g id="node15" class="node">
<title>139720528084176</title>
<ellipse fill="none" stroke="black" cx="387.4" cy="-127.61" rx="57.05" ry="26.74"/>
<text text-anchor="middle" x="387.4" y="-131.41" font-family="Times,serif" font-size="14.00">Constant</text>
<text text-anchor="middle" x="387.4" y="-116.41" font-family="Times,serif" font-size="14.00">0</text>
</g>
<!-- 139720528084560&#45;&gt;139720528084176 -->
<g id="edge14" class="edge">
<title>139720528084560&#45;&gt;139720528084176</title>
<path fill="none" stroke="black" d="M379.14,-210.15C380.4,-197.67 382.16,-180.33 383.73,-164.85"/>
<polygon fill="black" stroke="black" points="387.25,-164.81 384.77,-154.51 380.28,-164.11 387.25,-164.81"/>
<text text-anchor="middle" x="415.4" y="-175.48" font-family="Times,serif" font-size="10.00">comparators</text>
</g>
<!-- 139720528084464 -->
<g id="node11" class="node">
<title>139720528084464</title>
<ellipse fill="none" stroke="black" cx="109.4" cy="-26.87" rx="41.94" ry="26.74"/>
<text text-anchor="middle" x="109.4" y="-30.67" font-family="Times,serif" font-size="14.00">Name</text>
<text text-anchor="middle" x="109.4" y="-15.67" font-family="Times,serif" font-size="14.00">i</text>
</g>
<!-- 139720528084512&#45;&gt;139720528084464 -->
<g id="edge10" class="edge">
<title>139720528084512&#45;&gt;139720528084464</title>
<path fill="none" stroke="black" d="M185.78,-110.75C172.71,-96.56 153.2,-75.4 137.17,-58"/>
<polygon fill="black" stroke="black" points="139.44,-55.3 130.09,-50.32 134.29,-60.04 139.44,-55.3"/>
<text text-anchor="middle" x="166.9" y="-74.74" font-family="Times,serif" font-size="10.00">left</text>
</g>
<!-- 139720529984048 -->
<g id="node12" class="node">
<title>139720529984048</title>
<ellipse fill="none" stroke="black" cx="200.4" cy="-26.87" rx="31.4" ry="18"/>
<text text-anchor="middle" x="200.4" y="-23.17" font-family="Times,serif" font-size="14.00">Mod</text>
</g>
<!-- 139720528084512&#45;&gt;139720529984048 -->
<g id="edge11" class="edge">
<title>139720528084512&#45;&gt;139720529984048</title>
<path fill="none" stroke="black" d="M200.4,-109.41C200.4,-94.4 200.4,-72.37 200.4,-54.99"/>
<polygon fill="black" stroke="black" points="203.9,-54.87 200.4,-44.87 196.9,-54.87 203.9,-54.87"/>
<text text-anchor="middle" x="206.9" y="-74.74" font-family="Times,serif" font-size="10.00">op</text>
</g>
<!-- 139720528084224 -->
<g id="node13" class="node">
<title>139720528084224</title>
<ellipse fill="none" stroke="black" cx="306.4" cy="-26.87" rx="57.05" ry="26.74"/>
<text text-anchor="middle" x="306.4" y="-30.67" font-family="Times,serif" font-size="14.00">Constant</text>
<text text-anchor="middle" x="306.4" y="-15.67" font-family="Times,serif" font-size="14.00">5</text>
</g>
<!-- 139720528084512&#45;&gt;139720528084224 -->
<g id="edge12" class="edge">
<title>139720528084512&#45;&gt;139720528084224</title>
<path fill="none" stroke="black" d="M216.96,-111.18C232.04,-97.13 254.75,-75.98 273.51,-58.5"/>
<polygon fill="black" stroke="black" points="276.34,-60.65 281.28,-51.27 271.57,-55.53 276.34,-60.65"/>
<text text-anchor="middle" x="269.9" y="-74.74" font-family="Times,serif" font-size="10.00">right</text>
</g>
<!-- 139720528084080 -->
<g id="node17" class="node">
<title>139720528084080</title>
<ellipse fill="none" stroke="black" cx="499.4" cy="-127.61" rx="36.54" ry="26.74"/>
<text text-anchor="middle" x="499.4" y="-131.41" font-family="Times,serif" font-size="14.00">Call</text>
<text text-anchor="middle" x="499.4" y="-116.41" font-family="Times,serif" font-size="14.00">print</text>
</g>
<!-- 139720528084128&#45;&gt;139720528084080 -->
<g id="edge16" class="edge">
<title>139720528084128&#45;&gt;139720528084080</title>
<path fill="none" stroke="black" d="M487.84,-210.15C489.6,-197.67 492.06,-180.33 494.26,-164.85"/>
<polygon fill="black" stroke="black" points="497.79,-164.9 495.72,-154.51 490.85,-163.92 497.79,-164.9"/>
<text text-anchor="middle" x="507.4" y="-175.48" font-family="Times,serif" font-size="10.00">value</text>
</g>
<!-- 139720528084032 -->
<g id="node18" class="node">
<title>139720528084032</title>
<ellipse fill="none" stroke="black" cx="461.4" cy="-26.87" rx="41.94" ry="26.74"/>
<text text-anchor="middle" x="461.4" y="-30.67" font-family="Times,serif" font-size="14.00">Name</text>
<text text-anchor="middle" x="461.4" y="-15.67" font-family="Times,serif" font-size="14.00">print</text>
</g>
<!-- 139720528084080&#45;&gt;139720528084032 -->
<g id="edge17" class="edge">
<title>139720528084080&#45;&gt;139720528084032</title>
<path fill="none" stroke="black" d="M489.71,-101.44C485.19,-89.69 479.73,-75.52 474.82,-62.76"/>
<polygon fill="black" stroke="black" points="478.06,-61.41 471.2,-53.34 471.52,-63.93 478.06,-61.41"/>
<text text-anchor="middle" x="493.9" y="-74.74" font-family="Times,serif" font-size="10.00">func</text>
</g>
<!-- 139720528083984 -->
<g id="node19" class="node">
<title>139720528083984</title>
<ellipse fill="none" stroke="black" cx="592.4" cy="-26.87" rx="71.34" ry="26.74"/>
<text text-anchor="middle" x="592.4" y="-30.67" font-family="Times,serif" font-size="14.00">Constant</text>
<text text-anchor="middle" x="592.4" y="-15.67" font-family="Times,serif" font-size="14.00">Hello World</text>
</g>
<!-- 139720528084080&#45;&gt;139720528083984 -->
<g id="edge18" class="edge">
<title>139720528084080&#45;&gt;139720528083984</title>
<path fill="none" stroke="black" d="M520.04,-104.7C532.43,-91.54 548.42,-74.56 562.22,-59.91"/>
<polygon fill="black" stroke="black" points="564.89,-62.18 569.2,-52.5 559.79,-57.38 564.89,-62.18"/>
<text text-anchor="middle" x="559.9" y="-74.74" font-family="Times,serif" font-size="10.00">args</text>
</g>
</g>
</svg>
